<?xml version="1.0" encoding="utf-8"?>
<!-- Svg Vector Icons : http://www.onlinewebfonts.com/icon -->
<!DOCTYPE svg PUBLIC "-//W3C//DTD SVG 1.1//EN" "http://www.w3.org/Graphics/SVG/1.1/DTD/svg11.dtd">
<svg version="1.1" xmlns="http://www.w3.org/2000/svg" xmlns:xlink="http://www.w3.org/1999/xlink" x="0px" y="0px" viewBox="0 0 1000 1000" enable-background="new 0 0 1000 1000" xml:space="preserve">
<metadata> Svg Vector Icons : http://www.onlinewebfonts.com/icon </metadata>
<g><g transform="translate(0.000000,511.000000) scale(0.100000,-0.100000)"><path d="M4830.3,4956.3C2891.5,4079,423.1,2941.9,402.6,2915.3c-79.8-106.3-40.9-229.1,96.1-298.6c79.8-40.9,1167.8-537.9,3891.8-1779.2c310.8-141.1,584.9-257.7,609.4-257.7c22.5,0,292.5,114.5,599.2,253.6c4390.8,1998.1,3988,1809.9,4020.7,1889.7c28.6,69.5,20.4,135-22.5,192.2c-28.6,36.8-4489,2077.8-4576.9,2094.2C4989.8,5013.6,4912.1,4993.1,4830.3,4956.3z"/><path d="M363.7,2228.1l-57.3-49.1V-318c0-2468.5,0-2497.1,40.9-2535.9c22.5-22.5,989.8-466.3,2147.4-985.7c1562.5-701.5,2126.9-946.9,2186.2-946.9c61.4,0,87.9,12.3,126.8,55.2l49.1,57.3v2480.7c0,2333.5-2.1,2484.8-34.8,2525.7c-47,57.3-4259.9,1944.9-4341.8,1944.9C447.6,2277.2,396.5,2254.7,363.7,2228.1z"/><path d="M9294.7,2205.6c-83.8-38.9-1036.9-466.3-2116.7-951C6002.1,729.1,5200.4,358.9,5180,332.3c-34.8-40.9-36.8-192.2-36.8-2523.7c0-2454.1,0-2480.7,40.9-2531.8c71.6-92,139.1-90,372.2,12.3C6486.8-4308,9619.9-2886.7,9652.6-2854c40.9,38.9,40.9,65.5,40.9,2535.9v2497.1l-57.3,49.1C9558.5,2295.6,9478.8,2289.5,9294.7,2205.6z"/></g></g>
</svg>